<mxfile host="Electron" modified="2023-12-29T19:02:12.865Z" agent="Mozilla/5.0 (Macintosh; Intel Mac OS X 10_15_7) AppleWebKit/537.36 (KHTML, like Gecko) draw.io/22.1.15 Chrome/120.0.6099.109 Electron/28.1.0 Safari/537.36" etag="osdgRWp5XgTQvtuaf3Hh" version="22.1.15" type="device">
  <diagram name="Overview" id="k6lS5bYT9Td_wXgIG8ve">
    <mxGraphModel dx="1114" dy="878" grid="1" gridSize="10" guides="1" tooltips="1" connect="1" arrows="1" fold="1" page="1" pageScale="1" pageWidth="850" pageHeight="1100" math="0" shadow="0">
      <root>
        <mxCell id="0" />
        <mxCell id="1" parent="0" />
        <mxCell id="4wAAa1fFakk8y6umWcfF-2" value="" style="sketch=0;aspect=fixed;pointerEvents=1;shadow=0;dashed=0;html=1;strokeColor=none;labelPosition=center;verticalLabelPosition=bottom;verticalAlign=top;align=center;fillColor=#00188D;shape=mxgraph.mscae.enterprise.server_generic" parent="1" vertex="1">
          <mxGeometry x="399" y="270" width="52.8" height="110" as="geometry" />
        </mxCell>
        <mxCell id="4wAAa1fFakk8y6umWcfF-3" value="" style="outlineConnect=0;dashed=0;verticalLabelPosition=bottom;verticalAlign=top;align=center;html=1;shape=mxgraph.aws3.internet_2;fillColor=#D2D3D3;gradientColor=none;" parent="1" vertex="1">
          <mxGeometry x="386" y="50" width="79.5" height="54" as="geometry" />
        </mxCell>
        <mxCell id="4wAAa1fFakk8y6umWcfF-4" value="" style="shape=flexArrow;endArrow=classic;startArrow=classic;html=1;rounded=0;exitX=0.5;exitY=0;exitDx=0;exitDy=0;exitPerimeter=0;" parent="1" source="4wAAa1fFakk8y6umWcfF-2" target="4wAAa1fFakk8y6umWcfF-3" edge="1">
          <mxGeometry width="100" height="100" relative="1" as="geometry">
            <mxPoint x="500" y="500" as="sourcePoint" />
            <mxPoint x="600" y="400" as="targetPoint" />
          </mxGeometry>
        </mxCell>
        <mxCell id="4wAAa1fFakk8y6umWcfF-5" value="" style="outlineConnect=0;dashed=0;verticalLabelPosition=bottom;verticalAlign=top;align=center;html=1;shape=mxgraph.aws3.http_protocol;fillColor=#5294CF;gradientColor=none;" parent="1" vertex="1">
          <mxGeometry x="452" y="160" width="63" height="66" as="geometry" />
        </mxCell>
        <mxCell id="4wAAa1fFakk8y6umWcfF-6" value="&lt;h1&gt;API Gateway&lt;/h1&gt;&lt;p&gt;Listens for API requests over HTTP on predefined routes. This gateway will delegate to the appropriate service and await the response.&lt;/p&gt;" style="text;html=1;strokeColor=none;fillColor=none;spacing=5;spacingTop=-20;whiteSpace=wrap;overflow=hidden;rounded=0;" parent="1" vertex="1">
          <mxGeometry x="196" y="130" width="190" height="120" as="geometry" />
        </mxCell>
        <mxCell id="4wAAa1fFakk8y6umWcfF-7" value="Service Logic Pods" style="swimlane;horizontal=0;whiteSpace=wrap;html=1;" parent="1" vertex="1">
          <mxGeometry x="15.75" y="540" width="820" height="340" as="geometry" />
        </mxCell>
        <object placeholders="1" c4Type="Logical" c4Container="UserRequest" c4Technology="Docker" c4Description="Handles all user related requests" label="&lt;font style=&quot;font-size: 16px&quot;&gt;&lt;b&gt;%c4Type%&lt;/b&gt;&lt;/font&gt;&lt;div&gt;[%c4Container%:&amp;nbsp;%c4Technology%]&lt;/div&gt;&lt;br&gt;&lt;div&gt;&lt;font style=&quot;font-size: 11px&quot;&gt;&lt;font color=&quot;#E6E6E6&quot;&gt;%c4Description%&lt;/font&gt;&lt;/div&gt;" id="4wAAa1fFakk8y6umWcfF-12">
          <mxCell style="shape=hexagon;size=50;perimeter=hexagonPerimeter2;whiteSpace=wrap;html=1;fixedSize=1;rounded=1;labelBackgroundColor=none;fillColor=#23A2D9;fontSize=12;fontColor=#ffffff;align=center;strokeColor=#0E7DAD;metaEdit=1;points=[[0.5,0,0],[1,0.25,0],[1,0.5,0],[1,0.75,0],[0.5,1,0],[0,0.75,0],[0,0.5,0],[0,0.25,0]];resizable=0;" parent="4wAAa1fFakk8y6umWcfF-7" vertex="1">
            <mxGeometry x="44.25" y="80" width="200" height="170" as="geometry" />
          </mxCell>
        </object>
        <object placeholders="1" c4Type="Logical" c4Container="ClothingRequest" c4Technology="Docker" c4Description="Handles all clothing&#xa; related requests" label="&lt;font style=&quot;font-size: 16px&quot;&gt;&lt;b&gt;%c4Type%&lt;/b&gt;&lt;/font&gt;&lt;div&gt;[%c4Container%:&amp;nbsp;%c4Technology%]&lt;/div&gt;&lt;br&gt;&lt;div&gt;&lt;font style=&quot;font-size: 11px&quot;&gt;&lt;font color=&quot;#E6E6E6&quot;&gt;%c4Description%&lt;/font&gt;&lt;/div&gt;" id="4wAAa1fFakk8y6umWcfF-13">
          <mxCell style="shape=hexagon;size=50;perimeter=hexagonPerimeter2;whiteSpace=wrap;html=1;fixedSize=1;rounded=1;labelBackgroundColor=none;fillColor=#23A2D9;fontSize=12;fontColor=#ffffff;align=center;strokeColor=#0E7DAD;metaEdit=1;points=[[0.5,0,0],[1,0.25,0],[1,0.5,0],[1,0.75,0],[0.5,1,0],[0,0.75,0],[0,0.5,0],[0,0.25,0]];resizable=0;" parent="4wAAa1fFakk8y6umWcfF-7" vertex="1">
            <mxGeometry x="309.25" y="80" width="200" height="170" as="geometry" />
          </mxCell>
        </object>
        <mxCell id="4wAAa1fFakk8y6umWcfF-14" value="Services should be scalable horizontally.&lt;br&gt;Multiple consumers of the same kind can co-exist" style="text;html=1;align=center;verticalAlign=middle;resizable=0;points=[];autosize=1;strokeColor=none;fillColor=none;" parent="4wAAa1fFakk8y6umWcfF-7" vertex="1">
          <mxGeometry x="530" y="133" width="290" height="40" as="geometry" />
        </mxCell>
        <mxCell id="4wAAa1fFakk8y6umWcfF-8" value="" style="shape=flexArrow;endArrow=classic;startArrow=classic;html=1;rounded=0;entryX=0.5;entryY=1;entryDx=0;entryDy=0;entryPerimeter=0;exitX=0.5;exitY=0;exitDx=0;exitDy=0;" parent="1" source="4wAAa1fFakk8y6umWcfF-7" target="4wAAa1fFakk8y6umWcfF-2" edge="1">
          <mxGeometry width="100" height="100" relative="1" as="geometry">
            <mxPoint x="500" y="770" as="sourcePoint" />
            <mxPoint x="600" y="670" as="targetPoint" />
          </mxGeometry>
        </mxCell>
        <mxCell id="4wAAa1fFakk8y6umWcfF-9" value="" style="outlineConnect=0;dashed=0;verticalLabelPosition=bottom;verticalAlign=top;align=center;html=1;shape=mxgraph.aws3.mqtt_protocol;fillColor=#5294CF;gradientColor=none;" parent="1" vertex="1">
          <mxGeometry x="452" y="430" width="63" height="66" as="geometry" />
        </mxCell>
        <mxCell id="4wAAa1fFakk8y6umWcfF-10" value="&lt;h1&gt;Delegation&lt;/h1&gt;&lt;p&gt;Send the request through a message queue. First service pod available handles the request&lt;/p&gt;" style="text;html=1;strokeColor=none;fillColor=none;spacing=5;spacingTop=-20;whiteSpace=wrap;overflow=hidden;rounded=0;" parent="1" vertex="1">
          <mxGeometry x="200" y="403" width="190" height="120" as="geometry" />
        </mxCell>
        <mxCell id="4wAAa1fFakk8y6umWcfF-15" value="Data Management Pods" style="swimlane;horizontal=0;whiteSpace=wrap;html=1;" parent="1" vertex="1">
          <mxGeometry x="15" y="1040" width="820" height="340" as="geometry" />
        </mxCell>
        <object placeholders="1" c4Type="Data" c4Container="DBLayer" c4Technology="Docker" c4Description="Database Client" label="&lt;font style=&quot;font-size: 16px&quot;&gt;&lt;b&gt;%c4Type%&lt;/b&gt;&lt;/font&gt;&lt;div&gt;[%c4Container%:&amp;nbsp;%c4Technology%]&lt;/div&gt;&lt;br&gt;&lt;div&gt;&lt;font style=&quot;font-size: 11px&quot;&gt;&lt;font color=&quot;#E6E6E6&quot;&gt;%c4Description%&lt;/font&gt;&lt;/div&gt;" id="4wAAa1fFakk8y6umWcfF-21">
          <mxCell style="shape=hexagon;size=50;perimeter=hexagonPerimeter2;whiteSpace=wrap;html=1;fixedSize=1;rounded=1;labelBackgroundColor=none;fillColor=#23A2D9;fontSize=12;fontColor=#ffffff;align=center;strokeColor=#0E7DAD;metaEdit=1;points=[[0.5,0,0],[1,0.25,0],[1,0.5,0],[1,0.75,0],[0.5,1,0],[0,0.75,0],[0,0.5,0],[0,0.25,0]];resizable=0;" parent="4wAAa1fFakk8y6umWcfF-15" vertex="1">
            <mxGeometry x="75" y="80" width="200" height="170" as="geometry" />
          </mxCell>
        </object>
        <object placeholders="1" c4Type="Data" c4Container="MediaLayer" c4Technology="Docker" c4Description="Mediaserver Client" label="&lt;font style=&quot;font-size: 16px&quot;&gt;&lt;b&gt;%c4Type%&lt;/b&gt;&lt;/font&gt;&lt;div&gt;[%c4Container%:&amp;nbsp;%c4Technology%]&lt;/div&gt;&lt;br&gt;&lt;div&gt;&lt;font style=&quot;font-size: 11px&quot;&gt;&lt;font color=&quot;#E6E6E6&quot;&gt;%c4Description%&lt;/font&gt;&lt;/div&gt;" id="4wAAa1fFakk8y6umWcfF-22">
          <mxCell style="shape=hexagon;size=50;perimeter=hexagonPerimeter2;whiteSpace=wrap;html=1;fixedSize=1;rounded=1;labelBackgroundColor=none;fillColor=#23A2D9;fontSize=12;fontColor=#ffffff;align=center;strokeColor=#0E7DAD;metaEdit=1;points=[[0.5,0,0],[1,0.25,0],[1,0.5,0],[1,0.75,0],[0.5,1,0],[0,0.75,0],[0,0.5,0],[0,0.25,0]];resizable=0;" parent="4wAAa1fFakk8y6umWcfF-15" vertex="1">
            <mxGeometry x="335" y="80" width="200" height="170" as="geometry" />
          </mxCell>
        </object>
        <mxCell id="4wAAa1fFakk8y6umWcfF-19" value="" style="shape=flexArrow;endArrow=classic;startArrow=classic;html=1;rounded=0;entryX=0.5;entryY=1;entryDx=0;entryDy=0;entryPerimeter=0;exitX=0.5;exitY=0;exitDx=0;exitDy=0;" parent="1" edge="1">
          <mxGeometry width="100" height="100" relative="1" as="geometry">
            <mxPoint x="426" y="1040" as="sourcePoint" />
            <mxPoint x="425" y="880" as="targetPoint" />
          </mxGeometry>
        </mxCell>
        <mxCell id="4wAAa1fFakk8y6umWcfF-20" value="" style="outlineConnect=0;dashed=0;verticalLabelPosition=bottom;verticalAlign=top;align=center;html=1;shape=mxgraph.aws3.mqtt_protocol;fillColor=#5294CF;gradientColor=none;" parent="1" vertex="1">
          <mxGeometry x="452" y="930" width="63" height="66" as="geometry" />
        </mxCell>
        <mxCell id="4wAAa1fFakk8y6umWcfF-23" value="These services interact with the data stores&lt;br&gt;on behalf of the service logic pods" style="text;html=1;align=center;verticalAlign=middle;resizable=0;points=[];autosize=1;strokeColor=none;fillColor=none;" parent="1" vertex="1">
          <mxGeometry x="565" y="1193" width="250" height="40" as="geometry" />
        </mxCell>
        <mxCell id="4wAAa1fFakk8y6umWcfF-24" value="" style="shape=cylinder3;whiteSpace=wrap;html=1;boundedLbl=1;backgroundOutline=1;size=15;" parent="1" vertex="1">
          <mxGeometry x="70" y="1530" width="60" height="80" as="geometry" />
        </mxCell>
        <mxCell id="4wAAa1fFakk8y6umWcfF-25" value="" style="shape=datastore;whiteSpace=wrap;html=1;" parent="1" vertex="1">
          <mxGeometry x="690" y="1540" width="60" height="60" as="geometry" />
        </mxCell>
        <mxCell id="4wAAa1fFakk8y6umWcfF-26" value="" style="shape=flexArrow;endArrow=classic;startArrow=classic;html=1;rounded=0;entryX=0.25;entryY=1;entryDx=0;entryDy=0;" parent="1" source="4wAAa1fFakk8y6umWcfF-24" target="4wAAa1fFakk8y6umWcfF-15" edge="1">
          <mxGeometry width="100" height="100" relative="1" as="geometry">
            <mxPoint x="350" y="1570" as="sourcePoint" />
            <mxPoint x="450" y="1470" as="targetPoint" />
          </mxGeometry>
        </mxCell>
        <mxCell id="4wAAa1fFakk8y6umWcfF-27" value="DB Wrapper" style="edgeLabel;html=1;align=center;verticalAlign=middle;resizable=0;points=[];" parent="4wAAa1fFakk8y6umWcfF-26" vertex="1" connectable="0">
          <mxGeometry x="-0.0271" y="-1" relative="1" as="geometry">
            <mxPoint as="offset" />
          </mxGeometry>
        </mxCell>
        <mxCell id="4wAAa1fFakk8y6umWcfF-28" value="" style="shape=flexArrow;endArrow=classic;startArrow=classic;html=1;rounded=0;entryX=0.5;entryY=1;entryDx=0;entryDy=0;exitX=0.5;exitY=0;exitDx=0;exitDy=0;" parent="1" source="4wAAa1fFakk8y6umWcfF-25" target="4wAAa1fFakk8y6umWcfF-15" edge="1">
          <mxGeometry width="100" height="100" relative="1" as="geometry">
            <mxPoint x="350" y="1570" as="sourcePoint" />
            <mxPoint x="450" y="1470" as="targetPoint" />
          </mxGeometry>
        </mxCell>
        <mxCell id="4wAAa1fFakk8y6umWcfF-29" value="S3 Protocol" style="edgeLabel;html=1;align=center;verticalAlign=middle;resizable=0;points=[];" parent="4wAAa1fFakk8y6umWcfF-28" vertex="1" connectable="0">
          <mxGeometry x="0.0008" y="-1" relative="1" as="geometry">
            <mxPoint as="offset" />
          </mxGeometry>
        </mxCell>
        <mxCell id="4wAAa1fFakk8y6umWcfF-30" value="&lt;h1&gt;App Data&lt;/h1&gt;&lt;p&gt;Application requires a NoSQL database and S3 compatible file store. Data management pods interact with these in their respective manners. The data apps can be containerized if desired&lt;/p&gt;" style="text;html=1;strokeColor=none;fillColor=none;spacing=5;spacingTop=-20;whiteSpace=wrap;overflow=hidden;rounded=0;" parent="1" vertex="1">
          <mxGeometry x="310" y="1540" width="190" height="190" as="geometry" />
        </mxCell>
      </root>
    </mxGraphModel>
  </diagram>
</mxfile>
